<svg width="60" height="60" viewBox="0 0 60 60" fill="none" xmlns="http://www.w3.org/2000/svg">
<circle cx="30" cy="30" r="30" fill="#04243C"/>
<g clip-path="url(#clip0_4098_16201)">
<path d="M18.0404 29.531L12.9761 31.4345L9 32.9654L11.5532 29.531L9 26.0965L12.9761 27.5863L18.0404 29.531Z" fill="#2B9CAE"/>
<path d="M19.4426 25.0413H25.9928C28.525 25.0413 29.1527 26.1172 29.1527 27.1104V27.2345C29.1527 28.3102 28.19 28.9931 27.5203 29.0551C28.5038 29.1792 29.5921 29.9241 29.5921 31.3102V31.4343C29.5921 32.6343 28.8597 33.9583 26.0344 33.9583H19.4426V24.9998V25.0413ZM22.2049 26.9034V28.4551H25.302C26.0344 28.4551 26.2645 28.1033 26.2645 27.6896C26.2645 27.2758 26.0134 26.9034 25.302 26.9034H22.2049ZM22.2049 30.2344V31.9311H25.4695C26.3275 31.9311 26.5578 31.4967 26.5578 31.0414C26.5578 30.607 26.3067 30.2344 25.4695 30.2344H22.2049Z" fill="white"/>
<path d="M33.7565 25.0413L37.4605 30.0275V25.0413H40.2227V34H36.9581L33.2959 29.0759V34H30.5334V25.0413H33.7565Z" fill="white"/>
<path d="M44.1362 30.2552L40.2437 25.0413H43.6756L45.6218 27.6689L47.5681 25.0413H51L47.1075 30.2552V33.979H44.115V30.2552H44.1362Z" fill="white"/>
</g>
<defs>
<clipPath id="clip0_4098_16201">
<rect width="42" height="9" fill="white" transform="translate(9 25)"/>
</clipPath>
</defs>
</svg>
