<svg width="40" height="40" viewBox="0 0 40 40" fill="none" xmlns="http://www.w3.org/2000/svg">
<circle cx="20" cy="20" r="20" fill="black"/>
<g clip-path="url(#clip0_47353_118940)">
<path d="M10.8562 18.8477H7.64298L7.52393 18.9428V21.9982H8.41342V20.8524L8.49832 20.7711H10.8563C11.4516 20.7711 11.7308 20.5999 11.7308 20.1606V19.459C11.7306 19.019 11.4516 18.8477 10.8562 18.8477ZM10.8562 19.9772C10.8562 20.1842 10.7281 20.2272 10.4489 20.2272H8.50806L8.4133 20.1287V19.4742L8.49821 19.3912H10.4489C10.7281 19.3912 10.8562 19.4337 10.8562 19.6417V19.9772Z" fill="white"/>
<path d="M13.353 19.4256L14.1184 20.6243L14.076 20.7404H12.3833L11.9512 21.3085H14.4708L14.6454 21.4222L15.0366 21.9989H16.0545L13.8233 18.8086" fill="white"/>
<path d="M23.4748 21.3788V20.5307L23.5664 20.4462H25.2693V19.9062H22.5703V21.9992H26.5515V21.4618H23.5704" fill="white"/>
<path d="M26.5931 18.8477H22.5698V19.4414H26.5931V18.8477Z" fill="white"/>
<path d="M18.0826 19.4104H21.3238C21.2739 18.9699 21.0181 18.8477 20.3694 18.8477H18.0481C17.316 18.8477 17.0825 19.0004 17.0825 19.5925V21.2539C17.0825 21.8467 17.316 21.9994 18.0481 21.9994H20.3694C21.0276 21.9994 21.2797 21.8673 21.2969 21.4103H18.0826L17.9872 21.3144V19.4746" fill="white"/>
<path d="M5.36097 20.0757H3.00301L2.93358 19.994V19.4549L3.00267 19.3978H6.18137L6.22479 19.2843C6.11651 18.9865 5.83613 18.8477 5.31548 18.8477H3.10739C2.3758 18.8477 2.14194 19.0004 2.14194 19.5925V19.9409C2.14194 20.5338 2.3758 20.6862 3.10739 20.6862H5.46008L5.53398 20.7556V21.3192L5.47372 21.4071H2.78256V21.4044H2.07766C2.07766 21.4044 1.99699 21.4477 2.00009 21.4679C2.06024 21.8821 2.32424 21.9994 2.95626 21.9994H5.36097C6.09245 21.9994 6.3333 21.8467 6.3333 21.2539V20.82C6.3333 20.2282 6.09245 20.0757 5.36097 20.0757Z" fill="white"/>
<path d="M29.1239 18.8359H27.8004L27.7285 18.982L29.1984 20.1273C29.4768 19.955 29.7797 19.7803 30.1093 19.608" fill="white"/>
<path d="M30.3101 20.9931L31.602 22H32.9416L32.9971 21.8667L31.068 20.3574C30.8118 20.5584 30.5587 20.7706 30.3101 20.9931Z" fill="white"/>
<path d="M28.9271 21.9977H27.7296L27.6284 21.8283C28.4426 20.988 32.0842 17.3859 39.9999 17C39.9999 17 33.3558 17.2396 28.9271 21.9977Z" fill="#A7A9AC"/>
</g>
<circle cx="20" cy="20" r="19.5" stroke="black" stroke-opacity="0.05"/>
<defs>
<clipPath id="clip0_47353_118940">
<rect width="37" height="5" fill="white" transform="translate(2 17)"/>
</clipPath>
</defs>
</svg>
